<svg width="400" height="400" viewBox="0 0 500 375" fill="none" xmlns="http://www.w3.org/2000/svg">
<path d="M270.8 291.7C316.8 291.6 354.1 254.3 354.2 208.3C354.2 162.2 316.9 124.9 270.8 124.9C224.7 124.9 187.4 162.2 187.4 208.3C187.4 254.4 224.7 291.7 270.8 291.7ZM270.8 145.8C305.3 145.9 333.2 173.8 333.3 208.3C333.3 242.8 305.3 270.8 270.8 270.8C236.3 270.8 208.3 242.8 208.3 208.3C208.3 173.8 236.3 145.8 270.8 145.8Z" fill="white" fill-opacity="0.2"/>
<path d="M73.2999 218.7H73.0999C67.3999 218.8 62.6999 223.5 62.7999 229.2C62.8999 235 67.4999 239.6 73.2999 239.6C78.2999 239.1 82.1999 235.2 82.6999 230.2C83.2999 224.4 79.0999 219.3 73.2999 218.7Z" fill="white" fill-opacity="0.2"/>
<path d="M447.9 0H114.6C108.9 0 104.2 4.7 104.2 10.4V41.7H10.4C4.7 41.7 0 46.4 0 52.1V93.8V322.9C0.1 351.7 23.3 374.9 52.1 375H447.9C476.7 374.9 499.9 351.7 500 322.9V93.8V52.1C499.9 23.3 476.7 0.1 447.9 0ZM20.8 62.5H114.6C120.3 62.4 124.9 57.8 125 52.1V20.8H447.9C465.2 20.9 479.1 34.8 479.2 52.1V83.3H270.8H20.8V62.5ZM479.2 322.9C479.1 340.2 465.2 354.1 447.9 354.2H52.1C34.8 354.1 20.9 340.2 20.8 322.9V104.2H201.7C168 126.6 145.8 164.9 145.8 208.3C145.9 277.3 201.8 333.2 270.8 333.3C339.8 333.3 395.8 277.3 395.8 208.3C395.8 164.9 373.6 126.6 340 104.2H479.2V322.9ZM270.8 104.2C328.3 104.2 374.9 150.8 375 208.3V208.4C375 265.9 328.3 312.6 270.8 312.6C213.3 312.6 166.6 265.9 166.6 208.4C166.6 150.9 213.3 104.2 270.8 104.2Z" fill="white" fill-opacity="0.2"/>
<path d="M31.2999 20.8H72.8999C78.5999 20.8 83.2999 16.1 83.2999 10.4C83.2999 4.7 78.5999 0 72.8999 0H31.2999C25.5999 0 20.8999 4.7 20.8999 10.4C20.8999 16.1 25.5999 20.8 31.2999 20.8Z" fill="white" fill-opacity="0.2"/>
<path d="M281.2 62.5C286.9 62.5 291.6 57.8 291.6 52.1C291.6 46.4 286.9 41.7 281.2 41.7H239.6C233.9 41.7 229.2 46.4 229.2 52.1C229.2 57.8 233.9 62.5 239.6 62.5H281.2Z" fill="white" fill-opacity="0.2"/>
<path d="M385.4 62.5H427.1C432.8 62.5 437.5 57.8 437.5 52.1C437.5 46.4 432.8 41.7 427.1 41.7H385.4C379.7 41.7 375 46.4 375 52.1C375 57.8 379.7 62.5 385.4 62.5Z" fill="white" fill-opacity="0.2"/>
</svg>
