<svg width="45" height="45" viewBox="0 0 45 45" fill="none" xmlns="http://www.w3.org/2000/svg">
<path d="M34.2165 13.3442C35.6882 13.3442 36.8813 12.1511 36.8813 10.6794C36.8813 9.2077 35.6882 8.01465 34.2165 8.01465C32.7448 8.01465 31.5518 9.2077 31.5518 10.6794C31.5518 12.1511 32.7448 13.3442 34.2165 13.3442Z" fill="white" fill-opacity="0.6"/>
<path d="M22.3619 11.1311C20.1066 11.1311 17.902 11.7999 16.0268 13.0528C14.1516 14.3058 12.69 16.0867 11.827 18.1703C10.9639 20.2539 10.7381 22.5467 11.1781 24.7586C11.6181 26.9706 12.7041 29.0024 14.2988 30.5971C15.8936 32.1919 17.9254 33.2779 20.1373 33.7179C22.3493 34.1579 24.642 33.932 26.7256 33.069C28.8093 32.2059 30.5902 30.7444 31.8431 28.8692C33.0961 26.994 33.7649 24.7893 33.7649 22.534C33.7649 19.5098 32.5635 16.6094 30.425 14.4709C28.2866 12.3325 25.3862 11.1311 22.3619 11.1311ZM22.3619 29.9361C20.8979 29.9361 19.4668 29.502 18.2495 28.6887C17.0323 27.8753 16.0835 26.7193 15.5233 25.3667C14.963 24.0141 14.8164 22.5258 15.1021 21.09C15.3877 19.6541 16.0926 18.3352 17.1279 17.3C18.1631 16.2648 19.482 15.5598 20.9178 15.2742C22.3537 14.9886 23.842 15.1351 25.1946 15.6954C26.5471 16.2556 27.7032 17.2044 28.5166 18.4217C29.3299 19.6389 29.764 21.07 29.764 22.534C29.764 24.4972 28.9842 26.38 27.596 27.7681C26.2078 29.1563 24.3251 29.9361 22.3619 29.9361Z" fill="white" fill-opacity="0.6"/>
<path d="M22.3621 4.32847C28.2912 4.32847 28.9944 4.35068 31.3353 4.45801C32.7432 4.47472 34.1378 4.73324 35.4582 5.22228C36.4162 5.59181 37.2862 6.1578 38.0122 6.88382C38.7382 7.60985 39.3042 8.47983 39.6737 9.43777C40.1628 10.7582 40.4213 12.1528 40.438 13.5607C40.5453 15.9017 40.5675 16.6049 40.5675 22.5358C40.5675 28.4667 40.5453 29.1662 40.438 31.5071C40.4213 32.9151 40.1628 34.3097 39.6737 35.6301C39.3042 36.5881 38.7382 37.458 38.0122 38.1841C37.2862 38.9101 36.4162 39.4761 35.4582 39.8456C34.1378 40.3346 32.7432 40.5932 31.3353 40.6099C28.9944 40.7172 28.2912 40.7394 22.3621 40.7394C16.433 40.7394 15.7298 40.7172 13.3889 40.6099C11.9809 40.5932 10.5863 40.3346 9.2659 39.8456C8.30795 39.4761 7.43797 38.9101 6.71195 38.1841C5.98593 37.458 5.41994 36.5881 5.0504 35.6301C4.56137 34.3097 4.30285 32.9151 4.28613 31.5071C4.1788 29.1662 4.1566 28.463 4.1566 22.5339C4.1566 16.6049 4.1788 15.9017 4.28613 13.5607C4.30285 12.1528 4.56137 10.7582 5.0504 9.43777C5.41994 8.47983 5.98593 7.60985 6.71195 6.88382C7.43797 6.1578 8.30795 5.59181 9.2659 5.22228C10.5863 4.73324 11.9809 4.47472 13.3889 4.45801C15.7298 4.35068 16.433 4.32847 22.3621 4.32847ZM22.3621 0.327637C16.3312 0.327637 15.5743 0.353544 13.2057 0.460875C11.364 0.498063 9.54192 0.847208 7.81694 1.49347C6.34156 2.06398 5.00166 2.93647 3.88312 4.055C2.76459 5.17353 1.8921 6.51343 1.32159 7.98881C0.675127 9.71438 0.325979 11.5371 0.289 13.3794C0.181669 15.7481 0.155762 16.5012 0.155762 22.5339C0.155762 28.5667 0.181669 29.3217 0.289 31.6903C0.326188 33.532 0.675333 35.3541 1.32159 37.0791C1.8921 38.5545 2.76459 39.8944 3.88312 41.0129C5.00166 42.1314 6.34156 43.0039 7.81694 43.5744C9.5425 44.2209 11.3652 44.57 13.2075 44.607C15.5762 44.7143 16.3312 44.7402 22.3621 44.7402C28.3929 44.7402 29.1498 44.7143 31.5185 44.607C33.3608 44.57 35.1835 44.2209 36.909 43.5744C38.3844 43.0039 39.7243 42.1314 40.8429 41.0129C41.9614 39.8944 42.8339 38.5545 43.4044 37.0791C44.0502 35.3534 44.3987 33.5307 44.4351 31.6885C44.5425 29.3198 44.5684 28.5667 44.5684 22.5339C44.5684 16.5012 44.5425 15.7462 44.4351 13.3775C44.3979 11.5359 44.0488 9.71379 43.4025 7.98881C42.832 6.51343 41.9595 5.17353 40.841 4.055C39.7225 2.93647 38.3826 2.06398 36.9072 1.49347C35.1815 0.847634 33.3588 0.499112 31.5166 0.462725C29.1479 0.351693 28.3948 0.327637 22.3621 0.327637Z" fill="white" fill-opacity="0.6"/>
</svg>
