<svg width="46" height="46" viewBox="0 0 46 46" fill="none" xmlns="http://www.w3.org/2000/svg">
<path fill-rule="evenodd" clip-rule="evenodd" d="M17.081 16.0436H25.4565V20.2156C26.663 17.8161 29.757 15.6602 34.4049 15.6602C43.3149 15.6602 45.4302 20.4366 45.4302 29.2V45.4302H36.4097V31.1958C36.4097 26.2052 35.2032 23.3908 32.1317 23.3908C27.8718 23.3908 26.1015 26.424 26.1015 31.1936V45.4302H17.081V16.0436ZM1.61306 45.0468H10.6336V15.6602H1.61306V45.0468ZM11.9258 6.07821C11.9261 6.8343 11.7761 7.58291 11.4846 8.28054C11.1931 8.97816 10.7658 9.6109 10.2276 10.1419C9.13706 11.2258 7.66088 11.8325 6.12331 11.8288C4.58845 11.8278 3.11567 11.2226 2.02349 10.1442C1.48725 9.61134 1.06142 8.97791 0.770416 8.28019C0.47941 7.58247 0.328943 6.83418 0.327637 6.07821C0.327637 4.55149 0.936521 3.09017 2.02575 2.01222C3.11697 0.932368 4.59037 0.326962 6.12557 0.327637C7.66356 0.327637 9.13842 0.934266 10.2276 2.01222C11.3146 3.09017 11.9258 4.55149 11.9258 6.07821Z" fill="white" fill-opacity="0.6"/>
</svg>
