<svg width="94" height="131" viewBox="0 0 94 131" fill="none" xmlns="http://www.w3.org/2000/svg">
<g filter="url(#filter0_bd_40_47)">
<path d="M46.5 53.95C43.125 53.95 40.2563 52.7396 37.8938 50.3188C35.5313 47.8979 34.35 44.9583 34.35 41.5C34.35 38.0417 35.5313 35.1021 37.8938 32.6813C40.2563 30.2604 43.125 29.05 46.5 29.05C49.875 29.05 52.7438 30.2604 55.1063 32.6813C57.4688 35.1021 58.65 38.0417 58.65 41.5C58.65 44.9583 57.4688 47.8979 55.1063 50.3188C52.7438 52.7396 49.875 53.95 46.5 53.95ZM46.5 83L29.2875 65.3625L34.9575 59.5525L46.5 71.1725L58.0425 59.5525L63.7125 65.3625L46.5 83ZM23.2125 59.1375L6 41.5L23.2125 23.8625L28.8825 29.6725L17.5425 41.5L28.8825 53.3275L23.2125 59.1375ZM34.9575 23.4475L29.2875 17.6375L46.5 0L63.7125 17.6375L58.0425 23.4475L46.5 11.8275L34.9575 23.4475ZM69.7875 59.1375L64.1175 53.3275L75.4575 41.5L64.1175 29.6725L69.7875 23.8625L87 41.5L69.7875 59.1375Z" fill="#D7D7D7"/>
</g>
<path d="M9.744 125.24C7.984 125.24 6.472 124.888 5.208 124.184C3.96 123.464 3 122.456 2.328 121.16C1.656 119.848 1.32 118.304 1.32 116.528C1.32 114.752 1.656 113.216 2.328 111.92C3 110.624 3.96 109.624 5.208 108.92C6.472 108.2 7.984 107.84 9.744 107.84C10.928 107.84 11.992 108.008 12.936 108.344C13.896 108.68 14.72 109.176 15.408 109.832L14.4 112.28C13.648 111.672 12.92 111.24 12.216 110.984C11.528 110.712 10.736 110.576 9.84 110.576C8.128 110.576 6.816 111.096 5.904 112.136C5.008 113.16 4.56 114.624 4.56 116.528C4.56 118.432 5.008 119.904 5.904 120.944C6.816 121.984 8.128 122.504 9.84 122.504C10.736 122.504 11.528 122.376 12.216 122.12C12.92 121.848 13.648 121.4 14.4 120.776L15.408 123.224C14.72 123.864 13.896 124.36 12.936 124.712C11.992 125.064 10.928 125.24 9.744 125.24ZM22.3198 125.24C21.2638 125.24 20.3358 124.992 19.5358 124.496C18.7358 123.984 18.1118 123.256 17.6638 122.312C17.2158 121.368 16.9918 120.24 16.9918 118.928C16.9918 117.616 17.2158 116.496 17.6638 115.568C18.1118 114.624 18.7358 113.904 19.5358 113.408C20.3358 112.896 21.2638 112.64 22.3198 112.64C23.3438 112.64 24.2398 112.896 25.0078 113.408C25.7918 113.904 26.3118 114.576 26.5678 115.424H26.3038L26.5678 112.88H29.4478C29.3998 113.376 29.3518 113.88 29.3038 114.392C29.2718 114.904 29.2558 115.408 29.2558 115.904V125H26.2798L26.2558 122.504H26.5438C26.2878 123.336 25.7678 124 24.9838 124.496C24.1998 124.992 23.3118 125.24 22.3198 125.24ZM23.1598 122.936C24.1038 122.936 24.8638 122.608 25.4398 121.952C26.0158 121.28 26.3038 120.272 26.3038 118.928C26.3038 117.584 26.0158 116.584 25.4398 115.928C24.8638 115.272 24.1038 114.944 23.1598 114.944C22.2158 114.944 21.4558 115.272 20.8798 115.928C20.3038 116.584 20.0158 117.584 20.0158 118.928C20.0158 120.272 20.2958 121.28 20.8558 121.952C21.4318 122.608 22.1998 122.936 23.1598 122.936ZM32.5226 130.184V115.904C32.5226 115.408 32.5066 114.904 32.4746 114.392C32.4426 113.88 32.3946 113.376 32.3306 112.88H35.2346L35.4986 115.424H35.2346C35.4746 114.576 35.9786 113.904 36.7466 113.408C37.5306 112.896 38.4346 112.64 39.4586 112.64C40.5306 112.64 41.4666 112.896 42.2666 113.408C43.0666 113.904 43.6906 114.624 44.1386 115.568C44.5866 116.496 44.8106 117.616 44.8106 118.928C44.8106 120.24 44.5866 121.368 44.1386 122.312C43.6906 123.256 43.0666 123.984 42.2666 124.496C41.4666 124.992 40.5306 125.24 39.4586 125.24C38.4506 125.24 37.5626 124.992 36.7946 124.496C36.0266 124 35.5146 123.336 35.2586 122.504H35.5226V130.184H32.5226ZM38.6186 122.936C39.5786 122.936 40.3466 122.608 40.9226 121.952C41.4986 121.28 41.7866 120.272 41.7866 118.928C41.7866 117.584 41.4986 116.584 40.9226 115.928C40.3466 115.272 39.5786 114.944 38.6186 114.944C37.6746 114.944 36.9146 115.272 36.3386 115.928C35.7626 116.584 35.4746 117.584 35.4746 118.928C35.4746 120.272 35.7626 121.28 36.3386 121.952C36.9146 122.608 37.6746 122.936 38.6186 122.936ZM52.4723 125.24C51.0323 125.24 49.9443 124.864 49.2083 124.112C48.4723 123.36 48.1043 122.232 48.1043 120.728V115.136H45.7763V112.88H48.1043V109.784L51.1043 109.016V112.88H54.3443V115.136H51.1043V120.536C51.1043 121.368 51.2643 121.952 51.5843 122.288C51.9043 122.624 52.3443 122.792 52.9043 122.792C53.2083 122.792 53.4643 122.768 53.6723 122.72C53.8963 122.672 54.1123 122.608 54.3203 122.528V124.904C54.0483 125.016 53.7443 125.096 53.4083 125.144C53.0883 125.208 52.7763 125.24 52.4723 125.24ZM60.75 125.24C59.262 125.24 58.15 124.832 57.414 124.016C56.678 123.2 56.31 121.952 56.31 120.272V112.88H59.31V120.248C59.31 121.144 59.494 121.808 59.862 122.24C60.23 122.656 60.79 122.864 61.542 122.864C62.39 122.864 63.078 122.576 63.606 122C64.15 121.424 64.422 120.664 64.422 119.72V112.88H67.422V125H64.494V122.528H64.83C64.478 123.392 63.942 124.064 63.222 124.544C62.518 125.008 61.694 125.24 60.75 125.24ZM70.6549 125V115.976C70.6549 115.464 70.6389 114.944 70.6069 114.416C70.5909 113.888 70.5509 113.376 70.4869 112.88H73.3909L73.7269 116.192H73.2469C73.4069 115.392 73.6709 114.728 74.0389 114.2C74.4229 113.672 74.8869 113.28 75.4309 113.024C75.9749 112.768 76.5669 112.64 77.2069 112.64C77.4949 112.64 77.7269 112.656 77.9029 112.688C78.0789 112.704 78.2549 112.744 78.4309 112.808L78.4069 115.448C78.1029 115.32 77.8389 115.24 77.6149 115.208C77.4069 115.176 77.1429 115.16 76.8229 115.16C76.1349 115.16 75.5509 115.304 75.0709 115.592C74.6069 115.88 74.2549 116.28 74.0149 116.792C73.7909 117.304 73.6789 117.888 73.6789 118.544V125H70.6549ZM84.6636 125.24C83.6076 125.24 82.6796 124.992 81.8796 124.496C81.0796 123.984 80.4556 123.256 80.0076 122.312C79.5596 121.368 79.3356 120.24 79.3356 118.928C79.3356 117.616 79.5596 116.496 80.0076 115.568C80.4556 114.624 81.0796 113.904 81.8796 113.408C82.6796 112.896 83.6076 112.64 84.6636 112.64C85.6876 112.64 86.5836 112.896 87.3516 113.408C88.1356 113.904 88.6556 114.576 88.9116 115.424H88.6476L88.9116 112.88H91.7916C91.7436 113.376 91.6956 113.88 91.6476 114.392C91.6156 114.904 91.5996 115.408 91.5996 115.904V125H88.6236L88.5996 122.504H88.8876C88.6316 123.336 88.1116 124 87.3276 124.496C86.5436 124.992 85.6556 125.24 84.6636 125.24ZM85.5036 122.936C86.4476 122.936 87.2076 122.608 87.7836 121.952C88.3596 121.28 88.6476 120.272 88.6476 118.928C88.6476 117.584 88.3596 116.584 87.7836 115.928C87.2076 115.272 86.4476 114.944 85.5036 114.944C84.5596 114.944 83.7996 115.272 83.2236 115.928C82.6476 116.584 82.3596 117.584 82.3596 118.928C82.3596 120.272 82.6396 121.28 83.1996 121.952C83.7756 122.608 84.5436 122.936 85.5036 122.936Z" fill="white"/>
<defs>
<filter id="filter0_bd_40_47" x="-44" y="-50" width="181" height="183" filterUnits="userSpaceOnUse" color-interpolation-filters="sRGB">
<feFlood flood-opacity="0" result="BackgroundImageFix"/>
<feGaussianBlur in="BackgroundImage" stdDeviation="25"/>
<feComposite in2="SourceAlpha" operator="in" result="effect1_backgroundBlur_40_47"/>
<feColorMatrix in="SourceAlpha" type="matrix" values="0 0 0 0 0 0 0 0 0 0 0 0 0 0 0 0 0 0 127 0" result="hardAlpha"/>
<feOffset dy="4"/>
<feGaussianBlur stdDeviation="2"/>
<feComposite in2="hardAlpha" operator="out"/>
<feColorMatrix type="matrix" values="0 0 0 0 0 0 0 0 0 0 0 0 0 0 0 0 0 0 0.25 0"/>
<feBlend mode="normal" in2="effect1_backgroundBlur_40_47" result="effect2_dropShadow_40_47"/>
<feBlend mode="normal" in="SourceGraphic" in2="effect2_dropShadow_40_47" result="shape"/>
</filter>
</defs>
</svg>
