<svg width="300" height="300" viewBox="0 0 398 399" fill="none" xmlns="http://www.w3.org/2000/svg">
<path d="M175.352 7.49913L173.14 4.08891L177.181 3.653C184.197 2.89626 191.327 2.50009 198.55 2.50009C224.078 2.50009 248.466 7.38127 270.84 16.2614L272.346 16.8592L272.416 18.4781L278.381 157.771L278.773 166.927L273.785 159.239L175.352 7.49913Z" stroke="white" stroke-opacity="0.05" stroke-width="5" stroke-miterlimit="10"/>
<path d="M82.7687 44.9785L79.1479 43.1314L82.4297 40.7331C88.1303 36.5673 94.1072 32.6628 100.36 29.0552C122.465 16.2873 146.033 8.31985 169.85 4.82439L171.453 4.58911L172.323 5.95641L247.135 123.605L252.052 131.337L243.889 127.173L82.7687 44.9785Z" stroke="white" stroke-opacity="0.05" stroke-width="5" stroke-miterlimit="10"/>
<path d="M17.2714 123.945L21.3269 123.734L201.962 114.354L211.113 113.878L202.988 109.64L79.3685 45.1589L77.9318 44.4095L76.6611 45.4149C57.783 60.3518 41.3623 79.0376 28.6017 101.142L17.2714 123.945ZM17.2714 123.945L18.9098 120.229M17.2714 123.945L18.9098 120.229M18.9098 120.229C21.761 113.762 24.9869 107.395 28.6014 101.142L18.9098 120.229Z" stroke="white" stroke-opacity="0.05" stroke-width="5" stroke-miterlimit="10"/>
<path d="M7.49904 222.648L4.09263 224.858L3.65317 220.821C2.88899 213.802 2.5 206.671 2.5 199.45C2.5 173.929 7.38113 149.534 16.2542 127.167L16.8518 125.661L18.4709 125.591L157.771 119.619L166.927 119.227L159.239 124.215L7.49904 222.648Z" stroke="white" stroke-opacity="0.05" stroke-width="5" stroke-miterlimit="10"/>
<path d="M44.9786 315.231L43.1343 318.846L40.7353 315.573C36.5599 309.876 32.6619 303.898 29.0482 297.639L29.048 297.639C16.2874 275.534 8.32009 251.974 4.81762 228.158L4.58179 226.554L5.94959 225.684L123.605 150.872L131.337 145.956L127.173 154.118L44.9786 315.231Z" stroke="white" stroke-opacity="0.05" stroke-width="5" stroke-miterlimit="10"/>
<path d="M123.727 376.673L123.937 380.73L120.22 379.09C113.761 376.239 107.395 373.013 101.135 369.399C79.0308 356.638 60.3445 340.217 45.4141 321.338L44.4092 320.068L45.1584 318.631L109.64 195.018L113.878 186.894L114.353 196.045L123.727 376.673Z" stroke="white" stroke-opacity="0.05" stroke-width="5" stroke-miterlimit="10"/>
<path d="M222.648 390.508L224.861 393.918L220.819 394.354C213.803 395.111 206.673 395.507 199.444 395.507C173.922 395.507 149.534 390.626 127.16 381.746L125.654 381.148L125.584 379.529L119.613 240.236L119.22 231.08L124.208 238.768L222.648 390.508Z" stroke="white" stroke-opacity="0.05" stroke-width="5" stroke-miterlimit="10"/>
<path d="M315.231 353.022L318.847 354.866L315.573 357.265C309.878 361.439 303.9 365.344 297.64 368.952C275.535 381.72 251.967 389.687 228.157 393.183L226.554 393.418L225.684 392.051L150.866 274.403L145.948 266.67L154.111 270.834L315.231 353.022Z" stroke="white" stroke-opacity="0.05" stroke-width="5" stroke-miterlimit="10"/>
<path d="M376.673 274.273L380.729 274.063L379.09 277.779C376.239 284.245 373.013 290.612 369.399 296.864C356.638 318.969 340.217 337.655 321.339 352.592L320.068 353.598L318.632 352.848L195.019 288.367L186.894 284.129L196.045 283.654L376.673 274.273Z" stroke="white" stroke-opacity="0.05" stroke-width="5" stroke-miterlimit="10"/>
<path d="M390.501 175.352L393.908 173.142L394.347 177.179C395.111 184.205 395.5 191.328 395.5 198.556C395.5 224.078 390.619 248.473 381.746 270.846L381.148 272.353L379.529 272.423L240.229 278.387L231.074 278.779L238.761 273.792L390.501 175.352Z" stroke="white" stroke-opacity="0.05" stroke-width="5" stroke-miterlimit="10"/>
<path d="M353.021 82.7687L354.867 79.1511L357.265 82.4281C361.44 88.1312 365.338 94.1085 368.951 100.36L368.952 100.361C381.712 122.473 389.68 146.033 393.182 169.849L393.418 171.453L392.05 172.323L274.395 247.135L266.663 252.051L270.827 243.889L353.021 82.7687Z" stroke="white" stroke-opacity="0.05" stroke-width="5" stroke-miterlimit="10"/>
<path d="M274.273 21.3336L274.063 17.2763L277.78 18.9169C284.239 21.768 290.604 24.9934 296.863 28.5998L296.864 28.6007C318.969 41.3616 337.655 57.7895 352.592 76.6605L353.598 77.9314L352.848 79.3684L288.36 202.988L284.122 211.113L283.647 201.962L274.273 21.3336Z" stroke="white" stroke-opacity="0.05" stroke-width="5" stroke-miterlimit="10"/>
</svg>
