<svg width="46" height="37" viewBox="0 0 46 37" fill="none" xmlns="http://www.w3.org/2000/svg">
<path d="M40.4688 9.10853C40.4986 9.50923 40.4986 9.90764 40.4986 10.3061C40.4986 22.4988 31.1968 36.5486 14.1972 36.5486C8.95992 36.5486 4.09439 35.0351 0 32.4065C0.7436 32.4912 1.45966 32.521 2.23309 32.521C6.39402 32.531 10.4371 31.1429 13.7107 28.5804C11.7815 28.5455 9.91139 27.9105 8.36145 26.764C6.81151 25.6175 5.65912 24.0167 5.0652 22.1852C5.63667 22.2699 6.21043 22.3271 6.81174 22.3271C7.64026 22.3271 8.47336 22.2126 9.2468 22.0134C7.15315 21.5917 5.27055 20.4595 3.91909 18.8094C2.56763 17.1593 1.83075 15.0931 1.83375 12.9621V12.8477C3.0662 13.5323 4.49602 13.9605 6.01076 14.0177C4.7418 13.1764 3.70129 12.0349 2.98206 10.6948C2.26284 9.35481 1.88726 7.85801 1.88883 6.33796C1.88883 4.62525 2.34555 3.0545 3.14653 1.68524C5.46945 4.53599 8.36665 6.86817 11.6505 8.53074C14.9343 10.1933 18.5316 11.1492 22.2093 11.3364C22.067 10.6495 21.9798 9.93741 21.9798 9.22301C21.9792 8.01166 22.2179 6.81207 22.6823 5.69281C23.1466 4.57355 23.8276 3.55657 24.6861 2.70002C25.5447 1.84346 26.564 1.16412 27.6859 0.700836C28.8077 0.237549 30.0101 -0.000600776 31.2243 1.13814e-06C33.8866 1.13814e-06 36.2895 1.11281 37.9787 2.91253C40.0483 2.51324 42.033 1.75948 43.8448 0.684629C43.155 2.81594 41.7099 4.6232 39.7803 5.76782C41.6158 5.55895 43.4098 5.07736 45.1025 4.33903C43.8383 6.17791 42.2716 7.79044 40.4688 9.10853Z" fill="white" fill-opacity="0.6"/>
</svg>
